<svg xmlns="http://www.w3.org/2000/svg" viewBox="0 0 26 26" height="26" width="26"><title>circle-stroked.svg</title><rect fill="none" x="0" y="0" width="26" height="26"></rect><rect x="1" y="1" rx="12" ry="12" width="24" height="24" stroke="#991414" style="stroke-linejoin:round;stroke-miterlimit:4;" fill="#991414" stroke-width="2"></rect><rect x="1" y="1" width="24" height="24" rx="12" ry="12" fill="#ffffff"></rect><path fill="#242424" transform="translate(5 5)" d="M7.5 12.3C4.84898 12.3 2.7 10.151 2.7 7.5C2.7 4.84898 4.84898 2.7 7.5 2.7C10.151 2.7 12.3 4.84898 12.3 7.5C12.3 10.151 10.151 12.3 7.5 12.3ZM7.5 14C11.0899 14 14 11.0899 14 7.5C14 3.9101 11.0899 1 7.5 1C3.9101 1 1 3.9101 1 7.5C1 11.0899 3.9101 14 7.5 14Z"></path></svg>